<mxfile host="app.diagrams.net" modified="2024-05-31T08:08:10.832Z" agent="Mozilla/5.0 (Windows NT 10.0; Win64; x64) AppleWebKit/537.36 (KHTML, like Gecko) Chrome/125.0.0.0 Safari/537.36" etag="7pM2CcX4M4labKr6nOIx" version="24.4.0" type="device">
  <diagram id="R2lEEEUBdFMjLlhIrx00" name="Page-1">
    <mxGraphModel dx="794" dy="724" grid="1" gridSize="10" guides="1" tooltips="1" connect="1" arrows="1" fold="1" page="1" pageScale="1" pageWidth="850" pageHeight="1100" math="0" shadow="0" extFonts="Permanent Marker^https://fonts.googleapis.com/css?family=Permanent+Marker">
      <root>
        <mxCell id="0" />
        <mxCell id="1" parent="0" />
        <mxCell id="rPRuuln_elIW4djZ2sdX-1" value="댓글게시판" style="whiteSpace=wrap;html=1;align=center;" vertex="1" parent="1">
          <mxGeometry x="130" y="180" width="100" height="40" as="geometry" />
        </mxCell>
        <mxCell id="rPRuuln_elIW4djZ2sdX-2" value="회원" style="whiteSpace=wrap;html=1;align=center;" vertex="1" parent="1">
          <mxGeometry x="620" y="180" width="100" height="40" as="geometry" />
        </mxCell>
        <mxCell id="rPRuuln_elIW4djZ2sdX-3" value="작성자" style="ellipse;whiteSpace=wrap;html=1;align=center;" vertex="1" parent="1">
          <mxGeometry x="30" y="230" width="100" height="40" as="geometry" />
        </mxCell>
        <mxCell id="rPRuuln_elIW4djZ2sdX-4" value="글내용" style="ellipse;whiteSpace=wrap;html=1;align=center;" vertex="1" parent="1">
          <mxGeometry x="130" y="280" width="100" height="40" as="geometry" />
        </mxCell>
        <mxCell id="rPRuuln_elIW4djZ2sdX-5" value="작성일" style="ellipse;whiteSpace=wrap;html=1;align=center;" vertex="1" parent="1">
          <mxGeometry x="230" y="230" width="100" height="40" as="geometry" />
        </mxCell>
        <mxCell id="rPRuuln_elIW4djZ2sdX-7" value="상위글번호" style="ellipse;whiteSpace=wrap;html=1;align=center;" vertex="1" parent="1">
          <mxGeometry x="240" y="100" width="100" height="40" as="geometry" />
        </mxCell>
        <mxCell id="rPRuuln_elIW4djZ2sdX-8" value="좋아요" style="ellipse;whiteSpace=wrap;html=1;align=center;" vertex="1" parent="1">
          <mxGeometry x="130" y="70" width="100" height="40" as="geometry" />
        </mxCell>
        <mxCell id="rPRuuln_elIW4djZ2sdX-9" value="노출여부" style="ellipse;whiteSpace=wrap;html=1;align=center;" vertex="1" parent="1">
          <mxGeometry x="30" y="100" width="100" height="40" as="geometry" />
        </mxCell>
      </root>
    </mxGraphModel>
  </diagram>
</mxfile>
